<svg width="172" height="108" viewBox="0 0 172 108" fill="none" xmlns="http://www.w3.org/2000/svg">
<path d="M75.29 32.16C74.63 31.75 73.06 30.7 73.06 30.25C73.06 29.76 74.63 28.75 75.29 28.34C93.04 17.25 87.41 0 87.41 0H79.79C73.34 0.1 67.51 3.87999 64.81 9.73999L56.57 27.59C55.8 29.27 55.8 31.21 56.57 32.9L64.81 50.75C67.55 56.69 73.49 60.57 80.04 60.57H87.42C87.42 60.57 93.04 43.25 75.29 32.16Z" fill="#46AA9E"/>
<path opacity="0.68" d="M111.31 31.19C107.66 26.96 100.65 22.3 87.72 22.99C85.94 25.48 83.58 27.94 80.47 30.25C89.11 36.67 91.89 44.22 92.64 49.65C93.37 54.84 92.43 58.99 91.99 60.57H99.34C108.36 60.57 115.67 53.26 115.67 44.24C115.67 40.32 114.96 35.41 111.3 31.18L111.31 31.19Z" fill="#46AA9E"/>
<path opacity="0.38" d="M100.78 0.0199585V0H92.01C92.64 2.39 94.19 10.12 90.39 18.41C99.98 18.46 106.44 21.34 110.64 24.47C113.21 21.88 114.78 18.32 114.78 14.39C114.78 6.57001 108.54 0.22001 100.78 0.0100098V0.0199585Z" fill="#46AA9E"/>
<path d="M23.97 96.8301C23.22 95.8501 22.05 95.02 20.43 94.36C18.81 93.7 16.75 93.3 14.26 93.17V93.09C16.17 92.86 17.79 92.39 19.12 91.67C20.44 90.96 21.44 90.12 22.1 89.17C22.76 88.22 23.1 87.2701 23.1 86.3201C23.1 84.4901 22.21 83.0201 20.44 81.9401C18.67 80.8601 16.1 80.27 12.74 80.27H0V81.04C0.81 81.09 1.39999 81.19 1.75999 81.34C2.11999 81.49 2.35999 81.78 2.50999 82.22C2.64999 82.66 2.71999 83.3601 2.71999 84.3201V103.3C2.71999 104.27 2.66 104.97 2.53 105.4C2.4 105.84 2.15 106.13 1.78 106.28C1.41 106.43 0.82 106.54 0 106.59V107.35L11.74 107.32C11.74 107.32 12.88 107.35 13.62 107.35C17.3 107.35 20.13 106.74 22.11 105.52C24.1 104.3 25.09 102.43 25.09 99.9301C25.09 98.8301 24.72 97.7901 23.98 96.8101L23.97 96.8301ZM10.47 84.34C10.47 83.43 10.51 82.74 10.62 82.28C10.72 81.82 10.92 81.5001 11.21 81.3301C11.5 81.1501 11.94 81.0601 12.52 81.0601C13.47 81.0601 14.14 81.5201 14.57 82.4501C14.99 83.3801 15.2 84.8201 15.2 86.7501C15.2 88.6401 14.92 90.15 14.38 91.28C13.83 92.42 12.86 92.9901 11.49 92.9901H10.46V84.34H10.47ZM12.95 106.49C12.24 106.49 11.71 106.41 11.37 106.24C11.03 106.08 10.79 105.78 10.66 105.34C10.53 104.9 10.48 104.23 10.48 103.31V93.6301H11.01C13.1 93.6301 14.64 94.1601 15.61 95.2001C16.57 96.2401 17.06 97.77 17.06 99.79C17.06 104.25 15.7 106.48 12.96 106.48L12.95 106.49Z" fill="#46AA9E"/>
<path d="M45.77 105.3C45.59 105.46 45.4 105.59 45.19 105.7C44.99 105.82 44.8 105.88 44.62 105.88C44.39 105.88 44.23 105.76 44.14 105.54C44.05 105.31 44.01 104.88 44.01 104.24V93.98C44.01 92.56 43.93 91.71 43.76 90.91C43.59 90.11 43.26 89.44 42.75 88.9C42.04 88.16 41.17 87.65 40.15 87.38C39.14 87.12 37.92 86.99 36.52 86.99C33.87 86.99 31.82 87.39 30.4 88.21C29.58 88.67 28.98 89.17 28.6 89.73C28.21 90.29 28.02 90.96 28.02 91.72C28.02 92.69 28.31 93.49 28.88 94.11C29.46 94.74 30.24 95.05 31.23 95.05C32.22 95.05 33.07 94.76 33.78 94.15C34.48 93.55 34.84 92.75 34.84 91.75C34.84 91.01 34.62 90.34 34.2 89.75C33.78 89.15 33.14 88.69 32.27 88.39C32.91 87.95 33.62 87.74 34.41 87.74C35.41 87.74 36.11 88.06 36.52 88.69C36.92 89.33 37.13 90.06 37.13 90.87V94.01C37.13 94.7 36.81 95.23 36.17 95.62C35.53 96 34.53 96.42 33.16 96.88C31.85 97.31 30.8 97.73 29.98 98.14C29.17 98.55 28.46 99.13 27.86 99.88C27.26 100.63 26.96 101.58 26.96 102.73C26.96 104.06 27.37 105.16 28.2 106.05C29.03 106.93 30.26 107.36 31.89 107.36C34.26 107.36 36.04 106.39 37.24 104.45C37.29 105.35 37.63 106.05 38.24 106.57C38.85 107.1 39.92 107.36 41.46 107.36C43.5 107.36 45.07 106.89 46.17 105.94L45.78 105.29L45.77 105.3ZM37.13 103.66C36.72 104.1 36.25 104.31 35.71 104.31C34.4 104.31 33.76 103.39 33.76 101.55C33.76 100.48 33.94 99.63 34.3 99C34.65 98.37 35.18 97.74 35.87 97.07C36.48 96.46 36.9 95.96 37.13 95.58V103.65V103.66Z" fill="#46AA9E"/>
<path d="M119.22 80.29V81.0701C121.32 81.1501 122.28 82.19 122.28 84.41C122.28 85.69 121.69 87.64 121.03 90.15L117.93 101.88L110.2 82.8301C109.58 81.3001 108.09 80.29 106.43 80.29H99.61V81.0701C99.99 81.1001 100.39 81.3001 100.78 81.7001C101.17 82.1001 101.54 82.69 101.87 83.52L110.92 105.09C111.51 106.48 112.87 107.38 114.37 107.38H117.83L123.66 85.3801C124.61 82.5901 125.56 81.5301 127.2 81.0601V80.28H119.24L119.22 80.29Z" fill="#46AA9E"/>
<path d="M69 105.97C68.68 105.58 68.52 104.86 68.52 103.81V93.45C68.52 92.18 68.44 91.15 68.25 90.37C68.07 89.59 67.79 88.97 67.41 88.52C66.56 87.5 65.12 86.99 63.09 86.99C60.18 86.99 58.16 87.94 57.01 89.85V87.1C55.23 87.45 53.01 87.64 50.35 87.64C49.59 87.64 48.79 87.6 47.98 87.52V88.32C48.77 88.32 49.33 88.59 49.65 89.12C49.97 89.66 50.13 90.51 50.13 91.68V103.8C50.13 104.85 49.97 105.57 49.65 105.96C49.33 106.36 48.77 106.55 47.98 106.55V107.35H58.77V106.55C58.69 106.55 58.61 106.55 58.53 106.55C58 106.51 57.62 106.32 57.39 105.96C57.14 105.57 57.01 104.85 57.01 103.8V91.72C57.01 90.89 57.31 90.21 57.92 89.67C58.43 89.22 59.09 88.96 59.77 88.97C60.45 88.98 60.91 89.17 61.2 89.56C61.49 89.95 61.64 90.56 61.64 91.38V103.63C61.64 105.69 63.31 107.36 65.37 107.36H70.66V106.56C69.87 106.56 69.31 106.37 68.99 105.97H69Z" fill="#46AA9E"/>
<path d="M136.66 105.98C136.34 105.58 136.18 104.86 136.18 103.82V89.77C135.08 90.04 133.87 90.16 132.51 90.16C130.47 90.16 128.56 89.8801 127.14 89.3301V90.1301C128.45 90.6201 129.28 91.3901 129.28 93.5001V103.63C129.28 105.69 130.95 107.36 133.01 107.36H138.31V106.56C137.51 106.56 136.96 106.35 136.64 105.97L136.66 105.98Z" fill="#46AA9E"/>
<path d="M135.58 81.1301C136.31 81.6901 136.67 82.5101 136.67 83.5801C136.67 84.6501 136.31 85.47 135.58 86.03C134.85 86.59 133.83 86.8701 132.5 86.8701C131.15 86.8701 130.12 86.59 129.4 86.03C128.68 85.47 128.33 84.6501 128.33 83.5801C128.33 82.5101 128.69 81.6901 129.4 81.1301C130.11 80.5701 131.15 80.29 132.5 80.29C133.82 80.29 134.85 80.5701 135.58 81.1301Z" fill="#46AA9E"/>
<path d="M135.58 81.1301C136.31 81.6901 136.67 82.5101 136.67 83.5801C136.67 84.6501 136.31 85.47 135.58 86.03C134.85 86.59 133.83 86.8701 132.5 86.8701C131.15 86.8701 130.12 86.59 129.4 86.03C128.68 85.47 128.33 84.6501 128.33 83.5801C128.33 82.5101 128.69 81.6901 129.4 81.1301C130.11 80.5701 131.15 80.29 132.5 80.29C133.82 80.29 134.85 80.5701 135.58 81.1301Z" fill="#46AA9E"/>
<path d="M95.23 106.57V107.37H89.95C87.89 107.37 86.22 105.7 86.22 103.64V91.39C86.22 90.58 86.06 89.97 85.78 89.58C85.49 89.18 85 88.99 84.34 88.99C83.6 88.99 82.96 89.25 82.41 89.76C81.87 90.29 81.59 90.95 81.59 91.74V103.82C81.59 104.88 81.72 105.6 81.97 105.98C82.23 106.38 82.69 106.57 83.35 106.57V107.37H72.56V106.57C73.38 106.57 73.91 106.38 74.22 105.98C74.52 105.58 74.71 104.87 74.71 103.82V81.07C74.71 79.91 74.54 79.04 74.22 78.51C74.15 78.38 74.05 78.28 73.98 78.17C73.64 77.85 73.18 77.7 72.56 77.7V76.9C73.35 76.97 73.92 77.01 74.7 77.01C76.08 77.01 77.33 76.88 78.44 76.61C79.55 76.34 80.6 75.91 81.59 75.34V89.86C82.74 87.95 84.76 87 87.68 87C89.72 87 91.15 87.51 91.99 88.52C92.38 88.99 92.65 89.59 92.84 90.38C93.02 91.16 93.1 92.18 93.1 93.45V103.82C93.1 104.88 93.27 105.6 93.59 105.98C93.91 106.38 94.46 106.57 95.25 106.57H95.23Z" fill="#46AA9E"/>
<path d="M167.89 87.85V103.62C167.89 104.13 167.99 104.49 168.17 104.7C168.35 104.89 168.64 105 169.04 105C169.34 105 169.69 104.9 170.08 104.72C170.47 104.54 170.8 104.26 171.12 103.88L171.69 104.35C170.51 106.36 168.7 107.37 166.25 107.37C164.49 107.37 163.18 106.94 162.31 106.07C161.78 105.53 161.42 104.87 161.26 104.08C161.1 103.29 161.01 102.18 161.01 100.76V89.7501C161.01 88.7001 160.16 87.85 159.11 87.85V86.96H161.01V81.9501C162.39 81.9501 163.64 81.83 164.75 81.55C165.86 81.29 166.91 80.86 167.9 80.28V86.96H171.69V87.85H167.9H167.89Z" fill="#46AA9E"/>
<path d="M149.85 95.8301C150.24 95.8101 150.75 95.8301 151.33 95.8801C153.72 96.0501 157.17 96.41 157.23 94.41V94.16C156.91 89.85 154.5 87.18 150.03 86.99C147.07 86.87 144.69 87.87 142.9 89.61C141.1 91.35 140.2 93.98 140.2 97.46C140.2 101.11 141 103.21 142.6 104.87C144.21 106.53 146.34 107.36 149.03 107.36C151.12 107.36 152.83 106.72 154.17 105.44C155.51 104.17 156.67 102.4 157.23 100.62L156.59 100.39C155.37 102.09 153.28 103.81 150.87 103.46C147.18 102.92 146.47 99.8901 146.33 97.5101C146.33 97.5101 147.75 95.8901 149.85 95.8101V95.8301ZM146.31 96.4C146.31 90.47 147.78 87.8801 149.76 87.8801C151.26 87.8801 151.63 89.2901 151.63 93.1901C151.63 93.1901 151.63 94.6001 149.84 94.8201C148.05 95.0401 146.83 95.72 146.31 96.4Z" fill="#46AA9E"/>
</svg>
